<?xml version="1.0" standalone="no"?><!DOCTYPE svg PUBLIC "-//W3C//DTD SVG 1.1//EN" "http://www.w3.org/Graphics/SVG/1.1/DTD/svg11.dtd"><svg t="1539960599376" class="icon" style="" viewBox="0 0 1024 1024" version="1.1" xmlns="http://www.w3.org/2000/svg" p-id="4694" xmlns:xlink="http://www.w3.org/1999/xlink" width="256" height="256"><defs><style type="text/css"></style></defs><path d="M120.877511 8.533333h777.500445c63.354311 0 115.188622 51.834311 115.188622 115.188623v777.500444c0 63.348622-51.834311 115.185778-115.188622 115.185778H120.877511C57.528889 1016.408178 5.688889 964.571022 5.688889 901.2224V123.721956C5.691733 60.367644 57.528889 8.533333 120.877511 8.533333z" fill="#E600FF" p-id="4695"></path><path d="M667.818667 687.468089c-7.788089 2.2016-16.091022-1.644089-18.656711-8.641422-15.726933-44.182756-62.202311-64.850489-62.685867-65.083734-7.364267-3.208533-10.456178-11.201422-6.897778-17.854577 3.552711-6.650311 12.401778-9.437867 19.768889-6.229334 2.372267 1.041067 58.4192 25.992533 78.040178 80.961422 2.505956 7.04-1.774933 14.580622-9.568711 16.847645m82.716444 25.093689c-18.176-75.300978-79.152356-144.236089-158.936178-173.715911-3.527111-1.3056-3.785956-4.553956-0.4864-6.260623 52.747378-26.732089 86.647467-78.350222 78.748445-138.612622-8.160711-62.537956-63.911822-113.083733-132.972089-121.927111-96.517689-12.393244-179.492978 55.771022-179.492978 140.586667 0 51.851378 31.084089 94.961778 77.263645 119.381333 1.908622 0.935822 2.614044 3.091911 1.578666 4.8128-0.463644 0.770844-1.223111 1.359644-2.133333 1.652622-82.676622 28.003556-146.403556 97.442133-165.321956 173.846756-5.822578 23.446756 13.4656 42.0352 40.098134 42.0352h401.4848c26.5216 0 45.804089-18.420622 40.169244-41.799111" fill="#FFFFFF" p-id="4696"></path></svg>